HIERARCHY
ROOT Hips
{
	OFFSET 0.00000 0.00000 0.00000
	CHANNELS 6 Xposition Yposition Zposition Zrotation Yrotation Xrotation 
	JOINT LHipJoint
	{
		OFFSET 0 0 0
		CHANNELS 3 Zrotation Yrotation Xrotation
		JOINT LeftUpLeg
		{
			OFFSET 1.39187 -1.60231 0.69152
			CHANNELS 3 Zrotation Yrotation Xrotation
			JOINT LeftLeg
			{
				OFFSET 2.43314 -6.68499 0.00000
				CHANNELS 3 Zrotation Yrotation Xrotation
				JOINT LeftFoot
				{
					OFFSET 2.32059 -6.37578 0.00000
					CHANNELS 3 Zrotation Yrotation Xrotation
					JOINT LeftToeBase
					{
						OFFSET 0.23021 -0.63250 1.71305
						CHANNELS 3 Zrotation Yrotation Xrotation
						End Site
						{
							OFFSET 0.00000 -0.00000 0.91647
						}
					}
				}
			}
		}
	}
	JOINT RHipJoint
	{
		OFFSET 0 0 0
		CHANNELS 3 Zrotation Yrotation Xrotation
		JOINT RightUpLeg
		{
			OFFSET -1.19407 -1.60231 0.69152
			CHANNELS 3 Zrotation Yrotation Xrotation
			JOINT RightLeg
			{
				OFFSET -2.44411 -6.71513 0.00000
				CHANNELS 3 Zrotation Yrotation Xrotation
				JOINT RightFoot
				{
					OFFSET -2.31924 -6.37207 0.00000
					CHANNELS 3 Zrotation Yrotation Xrotation
					JOINT RightToeBase
					{
						OFFSET -0.19473 -0.53502 1.87724
						CHANNELS 3 Zrotation Yrotation Xrotation
						End Site
						{
							OFFSET -0.00000 -0.00000 0.98293
						}
					}
				}
			}
		}
	}
	JOINT LowerBack
	{
		OFFSET 0 0 0
		CHANNELS 3 Zrotation Yrotation Xrotation
		JOINT Spine
		{
			OFFSET -0.01120 1.87307 0.09613
			CHANNELS 3 Zrotation Yrotation Xrotation
			JOINT Spine1
			{
				OFFSET 0.01099 1.87818 0.04834
				CHANNELS 3 Zrotation Yrotation Xrotation
				JOINT Neck
				{
					OFFSET 0 0 0
					CHANNELS 3 Zrotation Yrotation Xrotation
					JOINT Neck1
					{
						OFFSET 0.01702 1.40324 -0.12579
						CHANNELS 3 Zrotation Yrotation Xrotation
						JOINT Head
						{
							OFFSET -0.04239 1.38587 -0.01614
							CHANNELS 3 Zrotation Yrotation Xrotation
							End Site
							{
								OFFSET -0.02510 1.47031 -0.00154
							}
						}
					}
				}
				JOINT LeftShoulder
				{
					OFFSET 0 0 0
					CHANNELS 3 Zrotation Yrotation Xrotation
					JOINT LeftArm
					{
						OFFSET 2.95699 0.62343 0.11653
						CHANNELS 3 Zrotation Yrotation Xrotation
						JOINT LeftForeArm
						{
							OFFSET 4.68382 -0.00000 -0.00000
							CHANNELS 3 Zrotation Yrotation Xrotation
							JOINT LeftHand
							{
								OFFSET 2.98124 -0.00000 -0.00000
								CHANNELS 3 Zrotation Yrotation Xrotation
								JOINT LeftFingerBase
								{
									OFFSET 0 0 0
									CHANNELS 3 Zrotation Yrotation Xrotation
									JOINT LeftHandIndex1
									{
										OFFSET 0.70759 -0.00000 0.00000
										CHANNELS 3 Zrotation Yrotation Xrotation
										End Site
										{
											OFFSET 0.57048 -0.00000 0.00000
										}
									}
								}
								JOINT LThumb
								{
									OFFSET 0 0 0
									CHANNELS 3 Zrotation Yrotation Xrotation
									End Site
									{
										OFFSET 0.57919 -0.00000 0.57919
									}
								}
							}
						}
					}
				}
				JOINT RightShoulder
				{
					OFFSET 0 0 0
					CHANNELS 3 Zrotation Yrotation Xrotation
					JOINT RightArm
					{
						OFFSET -2.99027 0.88714 -0.02793
						CHANNELS 3 Zrotation Yrotation Xrotation
						JOINT RightForeArm
						{
							OFFSET -4.75876 -0.00000 -0.00000
							CHANNELS 3 Zrotation Yrotation Xrotation
							JOINT RightHand
							{
								OFFSET -2.93293 -0.00000 -0.00000
								CHANNELS 3 Zrotation Yrotation Xrotation
								JOINT RightFingerBase
								{
									OFFSET 0 0 0
									CHANNELS 3 Zrotation Yrotation Xrotation
									JOINT RightHandIndex1
									{
										OFFSET -0.83175 -0.00000 0.00000
										CHANNELS 3 Zrotation Yrotation Xrotation
										End Site
										{
											OFFSET -0.67058 -0.00000 0.00000
										}
									}
								}
								JOINT RThumb
								{
									OFFSET 0 0 0
									CHANNELS 3 Zrotation Yrotation Xrotation
									End Site
									{
										OFFSET -0.68082 -0.00000 0.68082
									}
								}
							}
						}
					}
				}
			}
		}
	}
}
MOTION
Frames: 12
Frame Time: 0.0333333
0.2854 26.3230 1.2770 747.3880 101.3730 790.8930 0.0000 0.0000 0.0000 -2.5804 -21.1567 -73.3191 6.9942 15.3270 48.8523 0.7527 8.1114 -21.2764 0.1757 2.7001 7.4448 0.0000 0.0000 0.0000 14.4104 21.3216 -66.1181 -10.9932 -17.9318 62.7595 -0.2211 -5.3853 -12.4854 -0.3398 3.7461 -10.3633 -6.4832 1.3601 10.1312 -2.0199 1.2522 3.3753 1.3923 0.6784 -2.2397 -5.4706 2.4718 -0.8150 3.8026 4.5818 -20.2282 1.8536 2.7456 -6.1936 0.0000 0.0000 0.0000 -90.4823 -51.0050 -27.3726 5.6600 -9.6940 -0.4803 -0.0000 -0.0000 63.9667 9.0989 22.9081 3.5673 -7.1250 0.0000 -0.0000 -20.2601 52.0016 -3.6151 0.0000 0.0000 0.0000 100.7219 31.5413 48.6531 -19.3870 29.8967 -5.2223 0.0000 0.0000 2.4518 -26.6196 6.5270 -3.2607 7.1250 -0.0000 -0.0000 0.0973 -22.6867 0.0523
0.3385 26.5350 1.2613 748.5500 100.8820 791.3850 0.0000 0.0000 0.0000 -3.2918 -21.2811 -69.9728 6.0281 14.4555 45.0944 0.5999 8.8141 -20.3943 0.3296 3.6898 10.2054 0.0000 0.0000 0.0000 15.1923 20.9067 -64.6372 -9.9396 -17.3758 59.2864 -0.2117 -6.0046 -12.9207 -0.3015 3.5304 -9.7590 -6.6075 1.3890 9.3852 -2.0184 1.3278 3.2642 1.4687 0.7060 -1.9530 -5.1376 3.0854 -1.1780 2.6848 4.9617 -16.5593 1.4607 2.8579 -4.9716 -0.0000 -0.0000 0.0000 -90.2140 -50.2440 -31.7205 5.3982 -9.2548 -0.4372 -0.0000 -0.0000 69.8668 9.0568 22.2372 3.4521 -7.1250 0.0000 -0.0000 -19.9621 51.3639 -3.2380 -0.0000 -0.0000 0.0000 100.6121 28.7272 47.2088 -19.6562 30.2259 -5.3572 0.0000 0.0000 3.1575 -27.2841 7.1203 -3.6581 7.1250 -0.0000 -0.0000 -0.3619 -21.9791 -0.2001
0.3951 26.7266 1.2410 747.6100 100.1240 789.5560 0.0000 0.0000 0.0000 -4.7509 -21.4839 -66.4723 5.1574 13.5588 41.4981 0.3633 10.1145 -19.1788 0.2347 3.1182 8.6079 0.0000 0.0000 0.0000 15.5525 20.2037 -63.4398 -8.7957 -16.6745 55.3810 -0.1786 -6.5202 -12.8974 -0.3287 3.6848 -10.1915 -6.8588 1.2327 8.9027 -2.2813 1.1333 3.1614 1.3658 0.6084 -1.7774 -4.3783 3.7902 -2.1344 1.4164 5.5561 -11.9705 1.0680 3.0608 -3.6947 -0.0000 -0.0000 0.0000 -89.4243 -49.5785 -39.1668 5.1111 -8.7718 -0.3923 -0.0000 -0.0000 78.3412 10.7950 22.4568 4.1657 -7.1250 0.0000 -0.0000 -18.4133 51.8590 -3.1999 -0.0000 -0.0000 0.0000 100.6520 26.3560 47.2971 -19.9329 30.5614 -5.4972 0.0000 0.0000 2.3411 -28.3526 8.1887 -4.3952 7.1250 -0.0000 -0.0000 -1.0751 -20.6939 -0.6259
0.4598 26.8608 1.2224 747.9230 99.8680 788.7450 0.0000 0.0000 0.0000 -5.7844 -21.2571 -63.2707 4.5499 12.8582 38.8401 0.1613 10.8466 -17.6435 0.1786 2.7225 7.5071 0.0000 0.0000 0.0000 16.5437 19.4544 -62.1276 -7.4197 -15.6754 50.4444 -0.1773 -6.4613 -12.8139 -0.3666 3.8892 -10.7651 -6.9268 1.0139 8.2377 -2.0962 0.9111 3.3037 1.6309 0.4790 -1.2487 -3.9626 4.5465 -2.5741 0.3129 6.3497 -8.6828 0.6710 3.3799 -2.4490 -0.0000 -0.0000 0.0000 -88.7100 -48.5899 -40.7603 5.0048 -8.5925 -0.3762 -0.0000 -0.0000 80.1570 13.3129 23.3181 5.3511 -7.1250 0.0000 -0.0000 -16.3905 53.1209 -3.3457 -0.0000 -0.0000 0.0000 100.2850 24.5639 47.6517 -21.0153 31.8462 -6.0580 0.0000 0.0000 1.2109 -25.6845 7.1807 -3.4403 7.1250 -0.0000 -0.0000 0.8078 -22.0216 0.4460
0.5205 26.9235 1.2051 748.2800 99.6652 788.4070 0.0000 0.0000 0.0000 -6.4330 -21.0836 -61.3214 4.2489 12.4844 37.4679 0.3048 10.7368 -19.2096 0.5959 4.9420 13.7432 0.0000 0.0000 0.0000 17.4907 18.7940 -61.7421 -6.0549 -14.4814 45.2018 -0.1665 -6.2912 -12.4515 -0.5466 4.7366 -13.1587 -6.6298 0.7495 7.6544 -2.1978 0.6107 3.0565 1.3935 0.3304 -1.1575 -4.4827 5.0247 -4.1282 1.0662 7.0016 -4.4714 1.0883 3.6135 -0.8967 -0.0000 -0.0000 0.0000 -87.7322 -47.8802 -41.2445 4.8440 -8.3211 -0.3526 -0.0000 -0.0000 80.7814 15.1583 24.4276 6.3924 -7.1250 0.0000 -0.0000 -15.1084 54.5395 -3.6029 -0.0000 -0.0000 0.0000 100.3261 22.2414 48.6104 -21.5976 32.5193 -6.3682 0.0000 0.0000 2.4166 -26.2420 8.5656 -4.1993 7.1250 -0.0000 -0.0000 0.4648 -20.4472 0.2731
0.6071 26.9649 1.2096 749.2980 99.1619 788.7720 0.0000 0.0000 0.0000 -7.2112 -20.5893 -59.6031 4.0493 12.2258 36.5354 0.2518 10.9862 -18.8940 0.4072 4.0968 11.3491 0.0000 0.0000 0.0000 17.9431 18.6977 -61.4823 -4.7462 -13.0921 39.7142 -0.1645 -5.9157 -12.0262 -0.4262 4.1897 -11.6109 -6.9300 0.7173 6.7317 -2.3307 0.6065 2.8060 1.4317 0.3213 -0.9058 -3.2258 5.4954 -3.9978 -0.0866 7.5097 -2.5268 0.5578 3.8083 -0.2363 -0.0000 0.0000 0.0000 -87.0098 -46.5571 -41.1649 4.8963 -8.4095 -0.3602 -0.0000 -0.0000 80.9542 16.7766 24.4456 7.1113 -7.1250 0.0000 -0.0000 -13.4840 54.8681 -3.3129 -0.0000 0.0000 0.0000 100.0445 20.0575 49.5399 -22.9023 33.9818 -7.0836 0.0000 0.0000 2.3609 -25.0074 8.3872 -3.8924 7.1250 -0.0000 -0.0000 1.3459 -20.7404 0.7823
0.6912 27.0136 1.2058 746.5050 98.9246 785.0690 0.0000 0.0000 0.0000 -8.6410 -20.1617 -57.4568 3.8064 11.8982 35.3728 0.3162 10.4748 -19.0455 0.3869 3.9941 11.0602 0.0000 0.0000 0.0000 18.3475 17.9880 -60.8455 -3.5448 -11.5287 34.0844 -0.1124 -5.6518 -10.7605 -0.6478 5.1486 -14.3329 -7.2161 0.6333 6.1250 -2.2947 0.5158 2.5952 1.6393 0.2719 -0.7818 -2.7843 5.6326 -3.9443 -0.0223 7.6562 -0.8558 0.5421 3.8462 0.2764 0.0000 -0.0000 0.0000 -87.1401 -45.4653 -40.3415 4.9376 -8.4791 -0.3662 -0.0000 -0.0000 80.7733 18.0496 24.5134 7.7002 -7.1250 0.0000 -0.0000 -12.2182 55.1846 -3.0892 0.0000 -0.0000 0.0000 99.4369 17.7169 49.6261 -24.2975 35.4773 -7.8785 0.0000 0.0000 2.8520 -24.8210 9.3254 -4.2861 7.1250 -0.0000 -0.0000 1.5189 -19.7262 0.9174
0.7860 27.0486 1.2017 739.6980 98.8830 777.2400 0.0000 0.0000 0.0000 -10.8925 -19.5151 -55.2238 3.5585 11.5485 34.1529 0.4315 9.1035 -18.8944 0.3795 3.9562 10.9535 0.0000 0.0000 0.0000 17.6736 17.4835 -59.9950 -2.5830 -9.9872 28.9353 0.0097 -6.2477 -8.6516 -0.7890 5.6703 -15.8306 -7.5287 0.2031 5.7938 -2.3196 -0.0373 2.5413 1.8247 -0.0070 -0.6058 -2.0967 5.9871 -4.4680 -0.5592 8.1151 0.8851 0.3387 4.0398 0.9455 -0.0000 -0.0000 0.0000 -86.8286 -44.3278 -37.2368 5.1594 -8.8532 -0.3997 -0.0000 -0.0000 77.3803 18.4134 23.3817 7.5263 -7.1250 0.0000 -0.0000 -11.3359 54.1207 -2.5664 -0.0000 -0.0000 0.0000 99.0140 16.3328 50.3699 -25.1011 36.3072 -8.3497 0.0000 0.0000 3.4140 -24.8553 10.1513 -4.6675 7.1250 -0.0000 -0.0000 1.5327 -18.8193 0.9567
0.8827 27.0668 1.2030 734.3660 99.4785 771.0790 0.0000 0.0000 0.0000 -12.5956 -18.7025 -53.5934 3.4062 11.3253 33.3850 0.5831 7.3301 -18.9236 0.3046 3.5486 9.8099 0.0000 0.0000 0.0000 17.0548 17.2842 -59.2039 -1.8579 -8.5636 24.4396 0.1652 -7.9520 -6.5407 -0.7801 5.6388 -15.7400 -7.4092 -0.0688 5.0721 -2.1364 -0.3314 2.4764 1.9631 -0.1670 -0.2456 -1.7489 5.9745 -4.5956 -0.5377 8.0861 1.6599 0.3131 4.0154 1.2256 -0.0000 -0.0000 0.0000 -87.3659 -43.3108 -30.7505 5.4893 -9.4077 -0.4520 -0.0000 -0.0000 71.5375 18.2417 23.0448 7.3516 -7.1250 0.0000 -0.0000 -11.3653 53.7494 -2.4696 -0.0000 -0.0000 0.0000 98.4051 15.4041 49.9296 -25.8864 37.0963 -8.8190 0.0000 0.0000 3.8983 -24.9030 9.2248 -4.2563 7.1250 -0.0000 -0.0000 1.4559 -19.8297 0.8759
0.9931 27.0681 1.2119 729.0670 100.2030 764.7520 0.0000 0.0000 0.0000 -14.2621 -17.9162 -51.8802 3.3246 11.2029 32.9672 0.7334 5.5931 -19.1607 0.3585 3.8464 10.6450 0.0000 0.0000 0.0000 14.9275 18.2268 -57.6061 -1.3028 -7.2308 20.4011 0.4564 -11.8728 -4.1324 -0.9339 6.1557 -17.2368 -7.3716 -0.2478 4.5365 -2.0747 -0.5348 2.2737 2.0132 -0.2704 -0.1389 -1.1137 5.7779 -4.5534 -0.5033 7.7917 2.5571 0.2347 3.8633 1.5310 0.0000 0.0000 0.0000 -88.0112 -41.9944 -24.3094 5.8463 -10.0055 -0.5122 -0.0000 -0.0000 65.9164 18.2034 21.8577 6.9801 -7.1250 0.0000 -0.0000 -10.9196 52.5456 -2.0476 0.0000 0.0000 0.0000 98.3740 14.6790 48.4809 -25.6993 36.9103 -8.7065 0.0000 0.0000 4.8760 -22.7522 9.9826 -4.1580 7.1250 -0.0000 -0.0000 3.0185 -19.1821 1.8617
1.1198 27.0715 1.2144 722.4020 101.2880 756.8590 0.0000 0.0000 0.0000 -16.1376 -17.5824 -49.5928 3.2290 11.0568 32.4718 0.8467 4.0746 -19.3196 0.3444 3.7708 10.4327 0.0000 0.0000 0.0000 9.5786 21.1879 -55.1179 -0.9310 -6.1464 17.2098 1.2549 -19.5760 -4.2750 -0.2958 3.4975 -9.6669 -7.5300 -0.5059 4.3117 -1.9210 -0.8618 2.2688 2.2711 -0.4407 0.0165 0.6980 5.5501 -3.5764 -1.9533 7.4202 1.7987 -0.5541 3.6774 1.2547 -0.0000 -0.0000 0.0000 -89.2610 -40.8155 -16.3874 6.4533 -11.0160 -0.6229 -0.0000 -0.0000 58.5706 17.5773 22.2573 6.8420 -7.1250 0.0000 -0.0000 -11.7022 52.8365 -2.2815 -0.0000 -0.0000 0.0000 98.0499 14.8505 47.1450 -25.5285 36.7393 -8.6041 0.0000 0.0000 4.1312 -20.8981 9.5984 -3.6429 7.1250 -0.0000 -0.0000 4.3300 -19.7344 2.6210
1.2668 27.0669 1.2227 717.7630 102.1310 751.2450 0.0000 0.0000 0.0000 -17.7621 -16.9987 -47.6965 3.1843 10.9876 32.2382 0.9642 2.8275 -19.7725 0.2831 3.4219 9.4556 0.0000 0.0000 0.0000 5.9894 23.0829 -53.2384 -0.7045 -5.3646 14.9516 1.8264 -24.0645 -1.8467 -0.3926 4.0234 -11.1424 -7.9049 -0.4327 3.4172 -1.7246 -0.6820 2.4163 2.6651 -0.3833 0.6626 -0.0394 4.8898 -4.6995 -0.8302 6.5560 2.4104 -0.0704 3.2530 1.5637 0.0000 0.0000 0.0000 -91.1952 -40.3268 -11.3286 6.8989 -11.7527 -0.7109 -0.0000 -0.0000 54.5076 16.9522 21.4999 6.3744 -7.1250 0.0000 -0.0000 -12.0151 51.9672 -2.0860 0.0000 0.0000 0.0000 97.4282 14.6587 44.5370 -25.1240 36.3305 -8.3633 0.0000 0.0000 5.3163 -19.7068 9.5715 -3.4084 7.1250 -0.0000 -0.0000 5.1804 -19.8458 3.1267
